<?xml version="1.0" encoding="utf-8"?>
<!-- Generator: Adobe Illustrator 23.0.4, SVG Export Plug-In . SVG Version: 6.00 Build 0)  -->
<svg version="1.1" id="Layer_1" xmlns="http://www.w3.org/2000/svg" xmlns:xlink="http://www.w3.org/1999/xlink" x="0px" y="0px"
	 viewBox="0 0 800 800" style="enable-background:new 0 0 800 800;" xml:space="preserve">
<style type="text/css">
	.st0{fill:none;stroke:#292D32;stroke-width:1.5;stroke-linecap:round;stroke-linejoin:round;}
	.st1{opacity:0.4;}
</style>
<path class="st0" d="M219.7,66.7c-6.8-1.1-53.1-7.6-92.3,25.5c-42.7,36.1-40.7,88.6-40.3,94.5l-9,91.7c-0.4,19.9,1.8,58.8,28.6,87.4
	c25,26.8,59.1,31.5,81.4,34.3c156,19.5,266.4,19.5,422.3,0c22.8-2.8,57.4-7.6,81.4-34.3c23-25.4,26-59.3,28.6-87.4
	c3.3-37-3-65-9.3-91.7c-10.6-44.7-17.4-73.7-40.3-94.5c-29.5-26.8-70.4-25.9-92.3-25.5C493.8,68.1,372.8,67.1,219.7,66.7z"/>
<g class="st1">
	<path class="st0" d="M100.3,374v149.7c0,149.7,60,209.7,209.7,209.7h179.7c149.7,0,209.7-60,209.7-209.7V374"/>
	<path class="st0" d="M400,566.7c-55.7,0-83.3,27.7-83.3,83.3v83.3h166.7V650C483.3,594.3,455.7,566.7,400,566.7z"/>
</g>
</svg>
